<?xml version="1.0" encoding="UTF-8"?>
<svg version="1.1" viewBox="0 0 1600 832" width="98" height="100" xmlns="http://www.w3.org/2000/svg">
<path transform="translate(0)" d="m0 0h1600v832h-1600v-832z" fill="#FCFDFF"/>
<path transform="translate(422 403)" d="m0 0c16.7 9.01 35.5 11.8 54.3 7.82 6.75-2.09 13-5.49 19.2-8.76 4.55-2.37 9.16-4.64 13.8-6.92 1.8-0.899 3.6-1.8 5.4-2.7 1.3-0.647 1.3-0.647 2.63-1.31 1.75-0.878 3.49-1.77 5.23-2.67 11.6-5.95 24.4-9.95 37.4-6.82 2.94 1.19 2.94 1.19 4.94 4.19 0.0337 2.15 0.0337 2.15-0.273 4.61-0.166 1.33-0.166 1.33-0.335 2.7-4.6 31.7-15.9 60-36.4 84.7-0.44 0.563-0.879 1.13-1.33 1.71-14.5 18.4-41.9 34.5-65.4 37.7-20.7 0.506-44.9-13-60.2-26.4-0.83-0.722-1.66-1.44-2.52-2.19-2.53-2.24-5.01-4.51-7.48-6.81-0.629-0.575-1.26-1.15-1.91-1.74-22.5-21.4-38.2-59.6-39.5-90.4 0.0234-2.63 0.0234-2.63 0.375-4.88 18-16.5 56.1 9.5 72.2 18.2z" fill="#6B203D"/>
<path transform="translate(380 307)" d="m0 0c1.9-0.00514 3.81-0.0124 5.71-0.0217 5.15-0.0185 10.3-0.0056 15.5 0.0141 5.4 0.0164 10.8 0.00757 16.2 0.00248 9.06-0.00452 18.1 0.0113 27.2 0.0393 10.5 0.0321 20.9 0.032 31.4 0.0148 10.1-0.0159 20.2-0.00913 30.2 0.00794 4.29 0.00687 8.58 0.00584 12.9-0.00154 5.05-0.00766 10.1 0.00446 15.1 0.0318 1.85 0.00688 3.7 0.00698 5.56-2.16e-4 2.53-0.0087 5.06 0.00726 7.59 0.0294 0.732-0.00824 1.46-0.0165 2.22-0.025 5.06 0.0819 7.91 1.37 11.8 4.54 3.57 4.32 4.77 8.15 5.25 13.6 0.0759 0.746 0.152 1.49 0.23 2.26 1.05 12 0.687 24.1 0.52 36.1-0.574-0.0686-1.15-0.137-1.74-0.208-26.4-3.06-47.3 6.3-69.9 18.8-16.8 9.21-32.3 16-51.8 10.7-11.1-3.58-21.3-9.71-31.6-15.2-21.1-11.3-39.8-16.7-64-14-5.32-10.6-1.53-34.2 1.74-45.6 1.79-4.29 4.45-7.03 8.42-9.39 6.72-2.46 14.4-1.72 21.5-1.67z" fill="#6B203D"/>
<path transform="translate(934 307)" d="m0 0c1.3-0.0864 2.61-0.173 3.95-0.262 4.05 1.01 4.49 1.23 6.74 4.43 4.71 8.02 8.72 16.5 12.8 24.8 1.1 2.23 2.22 4.46 3.34 6.68 0.332 0.688 0.665 1.38 1.01 2.09 1.8 3.7 1.8 3.7 5.13 5.85 0.58 0.0206 1.16 0.0412 1.76 0.0625 1.98-3.65 3.96-7.29 5.94-10.9 0.589-1.08 1.18-2.17 1.78-3.29 3.92-7.23 7.79-14.5 11.6-21.8 1.39-2.66 2.58-4.87 4.72-7 2.56-0.172 5-0.233 7.56-0.188 0.698 6.45e-4 1.4 0.00129 2.12 0.00195 5.18 0.0452 5.18 0.0452 6.32 1.19 0.0951 2.56 0.126 5.08 0.114 7.64 1.46e-4 0.8 2.92e-4 1.6 4.43e-4 2.42-6.99e-4 2.66-0.00849 5.31-0.0163 7.97-0.00186 1.84-0.00329 3.67-0.00429 5.51-0.00383 4.84-0.0137 9.69-0.0247 14.5-0.0102 4.94-0.0148 9.88-0.0198 14.8-0.0107 9.7-0.0278 19.4-0.0488 29.1-2.46 0.0269-4.92 0.0468-7.38 0.0625-0.699 0.00838-1.4 0.0168-2.12 0.0254-5.28 0.0254-5.28 0.0254-7.51-1.09-0.33-14.9-0.66-29.7-1-45-3 3-4.38 5.37-6.29 9.13-0.302 0.59-0.604 1.18-0.914 1.79-0.96 1.88-1.91 3.76-2.86 5.64-0.955 1.89-1.91 3.77-2.87 5.66-0.871 1.71-1.74 3.41-2.6 5.12-1.46 2.66-1.46 2.66-3.46 4.66-5.53 0.635-5.53 0.635-8 0-4.54-3.69-6.92-8.06-9.5-13.2-0.39-0.753-0.78-1.51-1.18-2.28-2.48-4.8-4.88-9.64-7.15-14.6-1.38-2.52-1.38-2.52-5.17-5.98v50c-14 0-14 0-16-1-0.0463-10.4-0.0818-20.8-0.104-31.2-0.0105-4.83-0.0246-9.65-0.0473-14.5-0.0217-4.66-0.0337-9.31-0.0389-14-0.0037-1.78-0.0109-3.56-0.0217-5.34-0.0144-2.49-0.0165-4.97-0.0156-7.46-0.00719-0.741-0.0144-1.48-0.0218-2.25 0.0301-7.39 2.53-7.71 9.5-8.01z" fill="#6B203D"/>
<path transform="translate(1071 420)" d="m0 0c1.08 0.0155 2.15 0.0309 3.26 0.0469 2.62 0.203 2.62 0.203 3.62 1.2 0.4 2.52 0.75 5.03 1.06 7.56 0.464 3.68 0.464 3.68 0.938 7.44 9.57 0.33 19.1 0.66 29 1 2.54 5.09 4.67 9.5 6.51 14.8 0.429 1.22 0.859 2.44 1.3 3.7 0.439 1.26 0.878 2.53 1.32 3.79 0.874 2.51 1.75 5.01 2.63 7.52 0.383 1.1 0.766 2.2 1.16 3.34 1.31 3.57 1.31 3.57 3.08 6.9 1.48 0.495 1.48 0.495 3 1 0.227-1.17 0.454-2.33 0.688-3.54 1.43-6.42 3.54-12.6 5.63-18.9 0.692-2.07 1.37-4.14 2.05-6.21 0.439-1.32 0.88-2.64 1.32-3.96 0.396-1.19 0.791-2.38 1.2-3.6 1.11-2.84 1.11-2.84 3.11-4.84 2.53-0.23 2.53-0.23 5.5-0.188 1.47 0.00967 1.47 0.00967 2.97 0.0195 2.53 0.168 2.53 0.168 4.53 1.17-1.54 7.89-4.03 15.3-6.69 22.9-0.452 1.3-0.903 2.6-1.35 3.89-2.77 7.94-5.59 15.9-8.55 23.7-1.39 3.7-2.72 7.4-3.96 11.2-3.41 10.3-6.58 18.9-16.4 24.3-2.91 0.97-4.9 1.16-7.94 1.19-0.855 0.0142-1.71 0.0284-2.59 0.043-2.61-0.243-4.23-0.913-6.47-2.23-0.0539-1.79-0.0928-3.58-0.125-5.38-0.0232-0.998-0.0464-2-0.0703-3.02 0.195-2.6 0.195-2.6 2.2-4.6 1.28 0.0619 2.56 0.124 3.88 0.188 3.32 0.0662 3.86 0.0271 6.56-2.19 2.65-5.08 3.01-9.31 1.56-14.7-0.505-1.28-1.03-2.56-1.57-3.83-0.417-1.04-0.417-1.04-0.843-2.1-0.887-2.2-1.8-4.39-2.71-6.57-0.59-1.45-1.18-2.9-1.77-4.36-2.18-5.37-4.4-10.7-6.66-16-0.457-1.08-0.913-2.16-1.38-3.27-0.402-0.939-0.804-1.88-1.22-2.85-0.852-2.23-0.852-2.23-0.852-4.23-6.27 0.33-12.5 0.66-19 1 0.0739 4.38 0.157 8.76 0.262 13.1 0.0333 1.49 0.0613 2.98 0.084 4.47 0.0335 2.14 0.0858 4.28 0.142 6.42 0.0262 1.29 0.0524 2.58 0.0793 3.9 0.143 1.01 0.285 2.03 0.432 3.07 3.31 2.21 4.34 2.22 8.19 2.12 0.901-0.018 1.8-0.0361 2.73-0.0547 0.687-0.0232 1.37-0.0464 2.08-0.0703 2.1 3.92 2.99 7.69 4 12-8.25 3.2-17.7 4.96-26.3 2.27-4.35-2.27-6.68-5.35-8.21-9.93-0.66-3.45-0.687-6.9-0.766-10.4-0.0208-0.771-0.0416-1.54-0.063-2.34-0.0652-2.46-0.124-4.91-0.183-7.37-0.0432-1.67-0.0868-3.34-0.131-5-0.107-4.08-0.208-8.16-0.307-12.2-1.98-0.66-3.96-1.32-6-2-0.054-1.62-0.0928-3.25-0.125-4.88-0.0348-1.36-0.0348-1.36-0.0703-2.74 0.195-2.38 0.195-2.38 2.2-4.38 2.62-0.125 2.62-0.125 5 0-0.0348-0.976-0.0696-1.95-0.105-2.96-0.0271-1.27-0.0541-2.54-0.082-3.86-0.0348-1.26-0.0696-2.53-0.105-3.83 0.293-3.36 0.293-3.36 1.42-5.29 2.71-1.55 4.9-1.39 8-1.32z" fill="#6B203D"/>
<path transform="translate(1089 330)" d="m0 0c1.47 0.0561 1.47 0.0561 2.96 0.113 0.982 0.0245 1.96 0.049 2.98 0.0742 2.4 0.238 2.4 0.238 3.4 1.24 0.368 2.33 0.702 4.66 1 7 3.56 0 4.23-0.702 6.94-2.88 5.42-4.33 9.13-5.49 16.1-5.5 0.72-0.0245 1.44-0.049 2.18-0.0742 2.1-0.0117 2.1-0.0117 5.76 0.449 2.4 2.6 3.67 5.3 4.9 8.6 0.331 0.879 0.663 1.76 1 2.66 0.34 0.924 0.681 1.85 1.03 2.8 0.352 0.942 0.704 1.88 1.07 2.85 0.693 1.86 1.38 3.72 2.07 5.58 0.769 2.08 1.55 4.15 2.34 6.23 2.59 6.9 2.59 6.9 2.59 10.3 1.65 0.33 3.3 0.66 5 1 0.0922-0.554 0.184-1.11 0.279-1.68 1.42-7.82 3.77-15.3 6.22-22.8 0.408-1.29 0.815-2.57 1.22-3.86 0.391-1.21 0.781-2.42 1.18-3.67 0.354-1.1 0.708-2.2 1.07-3.33 1.02-2.64 1.02-2.64 3.02-4.64 2.79-0.23 2.79-0.23 6.06-0.188 1.63 0.00967 1.63 0.00967 3.29 0.0195 2.65 0.168 2.65 0.168 3.65 1.17-0.432 5.92-1.81 11-3.88 16.5-0.432 1.19-0.432 1.19-0.872 2.4-0.929 2.55-1.87 5.11-2.81 7.66-0.964 2.64-1.92 5.28-2.89 7.92-0.634 1.74-1.27 3.48-1.91 5.23-2.83 7.76-5.54 15.6-8.16 23.4-4.81 14.1-4.81 14.1-10.5 18.8-0.672 0.566-1.34 1.13-2.04 1.71-3.67 2.6-7.03 2.51-11.4 2.54-1.14 0.0142-2.29 0.0284-3.47 0.043-3.03-0.23-3.03-0.23-6.03-2.23-0.328-2.57-0.328-2.57-0.25-5.56 0.0155-0.991 0.0309-1.98 0.0469-3 0.203-2.43 0.203-2.43 1.2-3.43 1.6-0.105 3.21-0.184 4.81-0.25 3.52-0.348 4.91-0.542 7.81-2.69 2.47-5.51 2.13-10.6 0.341-16.4-1.45-3.69-2.99-7.32-4.59-10.9-0.529-1.23-1.06-2.47-1.58-3.7-1.31-3.06-2.64-6.12-3.97-9.17-1.42-3.26-2.82-6.53-4.22-9.8-0.499-1.17-0.999-2.33-1.51-3.53-0.359-0.84-0.718-1.68-1.09-2.54-6.89 1.58-12 2.85-17 8-1.61 3.22-1.24 6.75-1.32 10.3-0.0208 0.818-0.0416 1.64-0.063 2.48-0.0655 2.62-0.124 5.24-0.183 7.86-0.0432 1.77-0.0868 3.55-0.131 5.32-0.107 4.35-0.208 8.7-0.307 13.1-2.46 0.0269-4.92 0.0468-7.38 0.0625-0.699 0.00838-1.4 0.0168-2.12 0.0254-5.28 0.0254-5.28 0.0254-7.51-1.09-0.076-7.9-0.129-15.8-0.165-23.7-0.0134-2.69-0.0343-5.38-0.0615-8.07-0.0363-3.86-0.0534-7.72-0.0667-11.6-0.0155-1.2-0.031-2.41-0.0469-3.65-2.27e-4 -1.12-4.53e-4 -2.24-6.87e-4 -3.4-0.00999-1.48-0.00999-1.48-0.0202-2.99 0.564-4.07 1.87-6.37 6.02-7.03z" fill="#6B203D"/>
<path transform="translate(651,415)" d="m0 0c1.54 1.54 1.14 3 1.16 5.15 0.0103 0.882 0.0205 1.76 0.0311 2.67 0.0073 0.963 0.0146 1.93 0.0221 2.92 0.0281 2.04 0.0568 4.08 0.0859 6.12 0.041 3.21 0.0779 6.43 0.104 9.64-0.647 18.9-0.647 18.9 5.85 36.1 5.69 5.04 10.6 6.01 18.1 5.79 4.84-0.648 7.95-2.71 11.5-6.11 3.6-6.81 3.49-14.2 3.53-21.7 0.0146-1.07 0.0292-2.14 0.0443-3.25 0.062-4.56 0.102-9.12 0.144-13.7 0.0336-3.34 0.0787-6.68 0.125-10 0.00528-1.04 0.0106-2.07 0.016-3.14 0.0201-1.43 0.0201-1.43 0.0406-2.89 0.00729-0.842 0.0146-1.68 0.0221-2.55 0.265-2.05 0.265-2.05 2.27-4.05 3-0.449 3-0.449 6.56-0.688 1.18-0.0864 2.35-0.173 3.57-0.262 1.42-0.0251 1.42-0.0251 2.87-0.0508 1.66 1.66 1.14 3.63 1.16 5.91 0.00961 1.05 0.0192 2.1 0.0291 3.18 0.00425 1.14 0.0085 2.29 0.0129 3.47 0.0057 1.17 0.0114 2.35 0.0173 3.56 0.00947 2.49 0.016 4.99 0.0198 7.48 0.00964 3.79 0.0406 7.58 0.0723 11.4 0.00654 2.42 0.0118 4.85 0.0156 7.27 0.0123 1.13 0.0247 2.25 0.0374 3.41-0.0307 11-2.32 21.2-9.93 29.5-8.11 7.7-17.5 8.97-28.4 8.88-7.67-0.555-13.6-2.75-20-7-1.05-0.681-2.1-1.36-3.19-2.06-7.52-6.66-10.3-18-11-27.6-0.0742-2.83-0.09-5.66-0.0782-8.5-0.00191-1.02-0.00383-2.05-0.0058-3.1-0.00135-2.14 0.00227-4.29 0.0107-6.43 0.0108-3.29 2.33e-5 -6.59-0.0127-9.88 0.00132-2.09 0.00388-4.18 0.00781-6.27-0.00405-0.986-0.0081-1.97-0.0123-2.99 0.0063-0.909 0.0126-1.82 0.0191-2.75 0.00159-0.8 0.00318-1.6 0.00482-2.43 0.254-1.96 0.254-1.96 2.25-3.96 4.35-1.01 8.54-1.17 13-1z" fill="#6B203D"/>
<path transform="translate(692,315)" d="m0 0c1.07 3.03 1.22 4.46 0.00391 7.46-0.713 1.17-0.713 1.17-1.44 2.36-0.473 0.79-0.946 1.58-1.43 2.39-0.373 0.592-0.745 1.18-1.13 1.79-2.86-0.927-5.68-1.87-8.46-3.02-7.35-2.97-14.5-4.61-22.2-2.1-3.07 1.5-3.93 3.03-5.29 6.12-0.252 2.71-0.252 2.71 0 5 6.05 3.15 12.5 5.28 19.1 7.23 0.702 0.211 1.4 0.422 2.13 0.639 1.38 0.41 2.76 0.812 4.15 1.2 4.48 1.33 7.91 3.16 11.7 5.93 0.699 0.486 1.4 0.972 2.12 1.47 4.41 3.99 5.36 7.73 5.67 13.5 0.128 12 0.128 12-3.35 17-6.79 6.88-15.5 9.27-24.9 9.39-0.744-0.00556-1.49-0.0111-2.26-0.0168-0.786-0.00491-1.57-0.00983-2.38-0.0149-11.9-0.237-22-3.72-31.9-10.3 1.41-5.26 3.75-8.72 7-13 3.58 1.1 6.93 2.41 10.3 4 7.14 3.21 16 5.87 23.7 3.32 1.68-0.711 3.32-1.51 4.95-2.32 0.155-1.86 0.155-1.86 0.312-3.75 0.087-1.04 0.087-1.04 0.176-2.11-0.75-3.29-2.79-4.23-5.49-6.14-2.82-1.24-2.82-1.24-5.86-2.15-1.12-0.366-2.23-0.732-3.38-1.11-2.32-0.74-4.65-1.48-6.97-2.21-7.91-2.6-15.6-5.43-20.9-12.2-1.98-7.14-1.99-13.9 1.12-20.8 4.88-8.53 12.2-12.5 21.4-15.4 11.5-1.12 24.2 0.53 33.6 7.75z" fill="#6B203D"/>
<path transform="translate(476,328)" d="m0 0v2h2c6.92 8.11 9.48 15.4 9.24 26-0.692 8.55-4.04 14.2-10.2 20-7.93 6.15-16.2 7.21-26 6-8.2-2.9-15.9-7.19-20.1-15.1-3.94-8.27-5.21-14.6-2.23-23.5 3.85-9.67 9.12-15.2 18.7-19.5 10.5-3.7 19.2-1.45 28.6 4.07z" fill="#FCFDFF"/>
<path transform="translate(916 440)" d="m0 0c6.74 5.23 11.3 11.9 13.8 20 0.399 4.19 0.25 8.42 0.25 12.6-14.9 0.33-29.7 0.66-45 1-0.33 0.99-0.66 1.98-1 3 2.37 4.38 4.54 6.84 9 9 3.18 0.472 3.18 0.472 6.5 0.375 1.1 0.00773 2.21 0.0155 3.34 0.0234 4.12-0.52 6.95-1.86 9.53-5.15 1.62-1.25 1.62-1.25 5.06-1.06 2.9 0.662 5.04 1.3 7.56 2.81 0.303 3.04 0.417 4.48-1.54 6.91-10.3 8.47-19.3 10-32.5 9.09-7.78-1.67-14.6-6.2-20-12-4.94-7.77-6.25-15.9-5-25 2.54-9.21 8.71-17.3 17-22 9.49-5.1 23.6-5.24 32.9 0.387z" fill="#6B203D"/>
<path transform="translate(1063,334)" d="m0 0c5.76 5.26 8.67 10.1 9.2 17.9 0.154 4.6 0.227 9.21 0.28 13.8 0.0264 1.13 0.0529 2.26 0.0801 3.42 0.0135 1.02 0.0269 2.05 0.0408 3.1 0.455 3.1 1.45 4.34 3.4 6.73 0.293 3.02 0.293 3.02 0.188 6.25-0.0406 1.62-0.0406 1.62-0.082 3.27-0.0348 0.82-0.0696 1.64-0.105 2.48-1.92 0.0813-3.83 0.139-5.75 0.188-1.6 0.0522-1.6 0.0522-3.23 0.105-3.36-0.327-4.65-0.924-7.02-3.29-0.33-0.99-0.66-1.98-1-3-3.03 1.1-5.75 2.41-8.5 4.06-2.88 1.66-5.14 2.62-8.5 2.94-0.646 0.0632-1.29 0.126-1.96 0.191-7.21 0.391-13.6-1.33-19.2-5.96-3.01-3.13-5.17-5.97-5.97-10.3 0.227-7.14 3.2-11.9 8.12-16.9 8.12-5.92 17.2-6.82 27-6 2.02 0.603 4.03 1.25 6 2-0.807-4.33-1.54-7.29-3.94-11-4.61-3.01-8.71-2.83-14.1-2-2.43 0.885-4.68 1.93-7 3.09-2.84 1.28-4.95 1.49-8 0.906-2.61-2.19-2.94-3.57-3.38-6.94 1.99-4.44 4.94-5.27 9.35-7.02 10.8-3.71 24.3-5.44 34 1.96z" fill="#6B203D"/>
<path transform="translate(751 335)" d="m0 0c5.73 5.58 7.4 11.6 7.52 19.4 0.0284 1.19 0.0567 2.37 0.0859 3.6 0.0521 2.5 0.0964 4.99 0.133 7.49 0.0309 1.19 0.0619 2.37 0.0938 3.6 0.0297 1.63 0.0297 1.63 0.0601 3.29 0.464 3.2 1.4 4.43 3.42 6.87 0.293 3.02 0.293 3.02 0.188 6.25-0.0406 1.62-0.0406 1.62-0.082 3.27-0.0348 0.82-0.0696 1.64-0.105 2.48-11 0.792-11 0.792-15.1-2.5-0.639-0.825-1.28-1.65-1.94-2.5-3.45 0-4.92 0.837-7.94 2.44-6.61 3.5-12.8 4.72-20.2 3.1-5.81-1.92-10.7-5.16-14.1-10.4-2.05-4.51-2.08-8.22-0.762-13 2.46-5.74 7.36-10.6 13.1-13.1 9.16-2.92 18.8-3.43 27.9-0.0508-2.41-7.57-2.41-7.57-8-13-6.81-1.23-11.9 0.108-17.9 3.16-3.32 1.34-5.74 0.929-9.07-0.16-1.93-2.25-2.01-3.5-1.95-6.44 0.945-2.56 0.945-2.56 3.86-4.33 1.22-0.49 2.45-0.98 3.71-1.48 1.21-0.5 2.42-1 3.66-1.52 11.3-3.77 23.4-3.02 33.4 3.52z" fill="#6B203D"/>
<path transform="translate(460 424)" d="m0 0c1.93 1.03 3.83 2.12 5.72 3.23 5.43 2.81 11.4 3.47 17.4 4.45 3.32 0.613 3.32 0.613 4.32 1.61 0.301 1.97 0.565 3.96 0.812 5.94 1.37 9.14 3.89 16.2 10 23.2 1.57 2.53 1.6 3.96 1.17 6.89-1.39 2.22-1.39 2.22-3.25 4.5-3.12 4.1-4.24 7.21-5.19 12.2-1.45 5.5-1.45 5.5-4.21 7.36-4.03 1.92-8.22 3.12-12.5 4.29-2.51 0.822-4.6 2.21-6.84 3.6h-3c-0.495-3.47-0.495-3.47-1-7 1.12-0.744 1.12-0.744 2.27-1.5 5.8-4 9.88-7.01 12.7-13.5l1-2c0.626-8.04 0.245-13.7-4.69-20.2-1.31-1.75-1.31-1.75-1.31-3.75-0.99-0.33-1.98-0.66-3-1 0.0838-0.687 0.168-1.37 0.254-2.08 0.102-0.901 0.204-1.8 0.309-2.73 0.104-0.893 0.209-1.79 0.316-2.71 0.278-2.61 0.278-2.61-0.879-5.48-4.71-2.6-9.74-3.55-15-2.58-4.29 1.25-8.7 2.66-11.3 6.48-1.01 2.35-1.01 2.35 0.0234 5.91 0.444 2.69 0.525 3.75-0.941 6.09-1.05 1.16-2.14 2.28-3.27 3.36-4.13 4.66-3.92 9.95-3.79 15.9 0.466 5.53 2.58 8.45 6.62 12 2.12 1.73 4.23 3.28 6.5 4.81 2.92 2.84 2.91 5.08 3.12 9.06v3c-0.71-0.472-0.71-0.472-1.43-0.953-6.14-3.97-12.4-7.27-19.5-9.17-3.06-0.875-3.06-0.875-5.06-2.88-0.656-2.05-1.25-4.11-1.81-6.19-1.64-5.59-3.58-9.3-7.19-13.8v-2h-2c0.608-3.61 2.12-5.65 4.38-8.5 4.87-6.77 6.28-14 7.19-22.1 0.438-3.38 0.438-3.38 2.44-5.38 2.65-0.481 5.27-0.885 7.94-1.25 6.85-1.03 12-2.78 17.8-6.74 2.3-1.01 2.3-1.01 4.89-0.301z" fill="#FCFDFF"/>
<path transform="translate(847 332)" d="m0 0c1.02 1.14 1.02 1.14 2.06 2.31 0.722 0.804 1.44 1.61 2.19 2.44 7.8 15.3 3.78 38 2.81 54.6-2.48 0.0269-4.96 0.0468-7.44 0.0625-0.707 0.00838-1.41 0.0168-2.14 0.0254-1.81 0.00865-3.61-0.0357-5.42-0.0879-2.11-2.11-1.21-6.76-1.25-9.67-0.033-1.8-0.0662-3.59-0.0996-5.39-0.0473-2.84-0.0917-5.68-0.131-8.53-0.0398-2.74-0.0913-5.47-0.144-8.21-0.00841-0.846-0.0168-1.69-0.0255-2.56-0.0901-4.31-0.359-7.71-2.35-11.6-6.33-1.58-9.48-0.219-15 3-0.697 0.231-1.39 0.461-2.11 0.699-2.91 2.01-3.22 4.99-3.89 8.3-0.223 2.74-0.369 5.38-0.414 8.12-0.0194 0.745-0.0387 1.49-0.0587 2.26-0.0593 2.35-0.106 4.71-0.152 7.06-0.0382 1.61-0.0773 3.21-0.117 4.82-0.0955 3.91-0.18 7.83-0.258 11.7-2.29 0.0269-4.58 0.0464-6.88 0.0625-1.28 0.0116-2.55 0.0232-3.87 0.0352-3.26-0.0977-3.26-0.0977-5.26-1.1-0.0463-7.53-0.0819-15.1-0.104-22.6-0.0104-3.5-0.0246-6.99-0.0473-10.5-0.0258-4.02-0.0356-8.03-0.0444-12-0.0103-1.26-0.0206-2.52-0.0313-3.81-1.51e-4 -1.16-3.02e-4 -2.32-4.58e-4 -3.52-0.00444-1.03-0.00888-2.05-0.0135-3.11 0.241-2.44 0.241-2.44 2.24-4.44 2.82-0.195 2.82-0.195 6.12-0.125 1.1 0.018 2.19 0.0361 3.32 0.0547 0.843 0.0232 1.69 0.0464 2.55 0.0703 0.99 2.64 1.98 5.28 3 8 0.603-0.41 1.21-0.82 1.83-1.24 0.799-0.539 1.6-1.08 2.42-1.63 0.789-0.534 1.58-1.07 2.39-1.62 7.78-4.97 18-6.6 26.3-1.82z" fill="#6B203D"/>
<path transform="translate(725 437)" d="m0 0c0.901 0.0271 1.8 0.0541 2.73 0.082 1.03 0.0522 1.03 0.0522 2.08 0.105 0.99 2.97 1.98 5.94 3 9 0.568-0.398 1.14-0.797 1.72-1.21 9.35-6.41 16.7-9.25 28.3-7.79 5.15 2.16 7.71 7.17 10 12 1.23 5.31 1.13 10.6 1.1 16-0.00141 0.946-0.00283 1.89-0.00429 2.87-0.00557 3.01-0.0181 6.01-0.0309 9.02-0.00502 2.04-0.00958 4.09-0.0137 6.13-0.011 5-0.0282 9.99-0.0488 15-2.48 0.0269-4.96 0.0468-7.44 0.0625-0.707 0.00838-1.41 0.0168-2.14 0.0254-1.81 0.00865-3.61-0.0357-5.42-0.0879-2.02-2.02-1.16-6.14-1.18-8.91-0.0232-1.65-0.0473-3.29-0.0723-4.94-0.035-2.6-0.0644-5.2-0.0779-7.79-0.0156-2.51-0.0559-5.01-0.0999-7.52 0.00191-0.765 0.00382-1.53 0.00578-2.32-0.129-5.77-1.73-9.51-4.58-14.5-6.22-0.667-9.25 0.271-14.2 4-4.38 4.96-5.21 10.5-5.27 16.9-0.018 0.723-0.0359 1.45-0.0544 2.19-0.0537 2.28-0.0879 4.56-0.121 6.85-0.0332 1.56-0.0677 3.12-0.104 4.67-0.0845 3.8-0.151 7.59-0.209 11.4-2.48 0.0269-4.96 0.0468-7.44 0.0625-0.707 0.00838-1.41 0.0168-2.14 0.0254-1.81 0.00865-3.61-0.0357-5.42-0.0879-1.71-1.71-1.15-3.96-1.16-6.3-0.00961-1.13-0.0192-2.26-0.0291-3.43-0.00425-1.23-0.0085-2.46-0.0129-3.73-0.0057-1.26-0.0114-2.51-0.0173-3.81-0.00947-2.66-0.0164-5.33-0.0198-7.99-0.00548-3.42-0.0295-6.83-0.058-10.2-0.0231-3.25-0.0251-6.51-0.0299-9.76-0.0123-1.23-0.0247-2.46-0.0374-3.72 3e-3 -1.14 6e-3 -2.28 0.00909-3.45-0.00365-1-0.00729-2.01-0.011-3.04 0.367-2.52 0.367-2.52 1.73-4.35 2.31-1.66 4.01-1.47 6.82-1.36z" fill="#6B203D"/>
<path transform="translate(1018 439)" d="m0 0c3.04 1.73 4.07 2.69 6.06 5.69-0.319 3.83-0.845 5.77-3 9-3.47-0.423-6.17-1.07-9.38-2.5-5.31-2.2-9.44-3.25-15.1-1.31-2.69 1.55-2.69 1.55-3.44 4-0.0412 0.598-0.0825 1.2-0.125 1.81 5.73 3.51 11.4 5.64 17.8 7.62 6.36 2.1 10.7 4.71 14.1 10.8 1.74 5.61 1.93 10.5-0.625 15.9-3.24 4.43-8.83 7.84-14.2 8.71-13.5 0.863-24.1-0.299-35-9 1.16-3.91 2.36-6.87 5-10 3.26 0.642 5.59 1.88 8.44 3.56 6.07 3.14 11.9 3.12 18.6 2.44 0.66-0.33 1.32-0.66 2-1-0.495-3.47-0.495-3.47-1-7-1.44-0.586-2.87-1.17-4.31-1.75-0.911-0.369-1.82-0.737-2.76-1.12-2.83-1.09-5.68-2.05-8.55-3.01-5.66-2.04-11.3-4.82-14.6-10-1.66-4.42-0.558-8.89 0.984-13.2 2.83-5.5 7.09-8.27 12.6-10.8 8.67-2.6 18.3-2.69 26.5 1.24z" fill="#6B203D"/>
<path transform="translate(1248,335)" d="m0 0c1.31 3.5 1.31 3.5 1 7-1.44 2.94-1.44 2.94-3 5-3.57-0.595-6.48-1.6-9.75-3.12-4.99-2.04-9.07-2.56-14.2-0.875-2.45 1.9-3.63 3.26-5 6 2.42 0.968 4.83 1.93 7.25 2.89 1.64 0.653 3.28 1.31 4.92 1.97 1.98 0.794 3.97 1.57 5.97 2.33 6.52 2.55 11.3 4.48 15 10.6 1.64 3.92 1.34 7.98 0.902 12.2-1.19 2.81-1.19 2.81-3 5-0.681 0.866-1.36 1.73-2.06 2.62-7.13 5.76-16.1 6.2-24.9 5.38-8.01-1.31-14.3-4.51-21-9 1.11-3.49 2.26-6.77 4-10 4.65 0.465 8.04 1.86 12.1 4.06 3.68 1.79 6.99 2.07 11.1 2.06 0.869 0.00258 1.74 0.00516 2.63 0.00781 2.28 0.0126 2.28 0.0126 4.24-1.13v-8c-0.655-0.159-1.31-0.317-1.98-0.48-9.78-2.5-20.5-5.49-28-12.5-2.35-4.31-2.27-8.04-0.938-12.7 2.75-6.98 8.38-11 14.9-14.3 9.52-2.61 22.2-1.43 30 5z" fill="#6B203D"/>
<path transform="translate(812 437)" d="m0 0c1.79 0.0174 1.79 0.0174 3.62 0.0352 1.8 0.0135 1.8 0.0135 3.63 0.0273 0.927 0.0116 1.85 0.0232 2.81 0.0352 2.43 5.74 4.56 11.5 6.47 17.5 0.211 0.652 0.423 1.3 0.64 1.98 0.876 2.71 1.75 5.42 2.61 8.14 0.637 2.01 1.29 4.01 1.94 6.01 0.378 1.18 0.756 2.37 1.14 3.58 1 3.09 1 3.09 4.2 4.82 0.373-1.13 0.746-2.26 1.13-3.42 1.39-4.2 2.79-8.4 4.2-12.6 0.607-1.81 1.21-3.63 1.81-5.45 0.863-2.62 1.74-5.22 2.62-7.83 0.264-0.811 0.527-1.62 0.799-2.46 1.46-4.28 2.71-7.42 6.44-10.2 2.54-0.426 2.54-0.426 5.19-0.312 0.88 0.0245 1.76 0.049 2.67 0.0742 2.14 0.238 2.14 0.238 3.14 1.24-0.277 7.88-2.82 14.2-5.88 21.4-2.8 6.69-5.45 13.3-7.44 20.3-1.06 3.54-2.41 6.94-3.81 10.4-0.264 0.662-0.529 1.32-0.801 2.01-1.94 4.8-1.94 4.8-3.07 5.93-2.64 0.154-5.23 0.232-7.88 0.25-0.733 0.0206-1.47 0.0412-2.22 0.0625-5.46 0.0398-5.46 0.0398-7.54-1.61-2.32-2.9-3.4-6.39-4.68-9.83-0.305-0.801-0.61-1.6-0.924-2.43-2.26-5.97-4.4-12-6.48-18-1.33-3.82-2.73-7.6-4.25-11.4-0.328-0.816-0.656-1.63-0.994-2.47-0.639-1.58-1.29-3.15-1.95-4.71-1.52-3.74-2.44-6.04-1.1-9.89 1-1 1-1 3.94-1.1z" fill="#6B203D"/>
<path transform="translate(871 313)" d="m0 0c1.17 0.0142 2.35 0.0284 3.56 0.043 1.77 0.00967 1.77 0.00967 3.57 0.0195 2.87 0.168 2.87 0.168 3.87 1.17 0.237 2.53 0.422 5.03 0.562 7.56 0.0432 0.711 0.0864 1.42 0.131 2.15 0.106 1.76 0.207 3.52 0.307 5.28 1.17 0.0909 1.17 0.0909 2.37 0.184 1.01 0.0838 2.02 0.168 3.07 0.254 1.51 0.122 1.51 0.122 3.06 0.246 2.5 0.316 2.5 0.316 3.5 1.32 0.0723 1.85 0.0838 3.71 0.0625 5.56-0.00902 1.01-0.018 2.02-0.0273 3.07-0.0116 0.782-0.0232 1.56-0.0352 2.37-0.782 0.0606-1.56 0.121-2.37 0.184-1.52 0.126-1.52 0.126-3.07 0.254-1.01 0.0812-2.02 0.162-3.06 0.246-2.44 0.0485-2.44 0.0485-3.5 1.32-0.242 4.1-0.229 8.2-0.24 12.3-0.00969 2.06-0.0407 4.12-0.0723 6.18-0.00516 1.29-0.0103 2.59-0.0156 3.92-0.00935 1.19-0.0187 2.39-0.0283 3.61 0.109 2.97 0.109 2.97 1.72 4.88 2.32 1.57 4.05 1.4 6.82 1.29 0.901-0.0271 1.8-0.0541 2.73-0.082 0.687-0.0348 1.37-0.0696 2.08-0.105 2.22 4.62 3.38 7.77 3 13-8.26 2.59-15.3 4.41-23.8 1.88-4.64-2.68-7.52-5.68-9.25-10.9-0.154-2.8-0.257-5.58-0.316-8.39-0.0208-0.817-0.0416-1.63-0.063-2.48-0.0654-2.61-0.124-5.22-0.183-7.82-0.0432-1.77-0.0868-3.54-0.131-5.31-0.107-4.34-0.208-8.67-0.307-13-2.31-0.66-4.62-1.32-7-2-0.363-7.39-0.363-7.39 1.19-10 2.35-1.3 4.16-1.07 6.81-1-0.0232-1.06-0.0464-2.12-0.0703-3.21-0.0188-1.39-0.037-2.78-0.0547-4.16-0.0168-0.699-0.0335-1.4-0.0508-2.12-0.0177-1.84 0.0727-3.67 0.176-5.51 2-2 2-2 5-2.23z" fill="#6B203D"/>
<path transform="translate(430 257)" d="m0 0c1.13-0.0245 2.27-0.049 3.43-0.0742 10.6-0.0374 10.6-0.0374 15.3 4.45 3.74 4.65 4.56 8.2 4.39 14-0.00566 0.746-0.0113 1.49-0.0172 2.26-0.0222 2.36-0.0724 4.73-0.123 7.09-0.0201 1.61-0.0383 3.22-0.0547 4.83-0.0439 3.93-0.113 7.86-0.195 11.8-4.95 0.0247-9.9 0.0429-14.8 0.0549-1.68 0.00503-3.37 0.0119-5.05 0.0205-2.42 0.0121-4.84 0.0178-7.25 0.0222-0.755 0.00516-1.51 0.0103-2.29 0.0156-5.34 5.75e-4 -5.34 5.75e-4 -7.56-1.11-0.0493-5.8-0.0857-11.6-0.11-17.4-0.0101-1.97-0.0237-3.95-0.041-5.92-0.0242-2.83-0.0356-5.67-0.0444-8.5-0.0103-0.887-0.0206-1.77-0.0313-2.69-3.98e-4 -2.16 0.104-4.32 0.227-6.48 3.62-3.62 9.35-2.37 14.2-2.38z" fill="#6B203D"/>
<path transform="translate(479 257)" d="m0 0c1.02-0.00129 2.05-0.00258 3.1-0.00391 1.07 0.00387 2.13 0.00773 3.23 0.0117 1.08-0.00387 2.15-0.00773 3.26-0.0117 1.02 0.00129 2.04 0.00258 3.09 0.00391 0.939 0.00113 1.88 0.00226 2.85 0.00342 2.18 0.129 2.18 0.129 3.18 1.13 0.0927 1.35 0.117 2.71 0.114 4.06-7.55e-5 0.861-1.51e-4 1.72-2.29e-4 2.61-0.00516 0.935-0.0103 1.87-0.0156 2.83-0.00141 0.953-0.00283 1.91-0.00429 2.89-0.00562 3.06-0.0182 6.11-0.0309 9.17-0.00501 2.07-0.00958 4.13-0.0137 6.2-0.0111 5.08-0.0283 10.2-0.0488 15.2-4.95 0.0247-9.9 0.0429-14.8 0.0549-1.68 0.00503-3.37 0.0119-5.05 0.0205-2.42 0.0121-4.84 0.0178-7.25 0.0222-0.755 0.00516-1.51 0.0103-2.29 0.0156-5.34 5.75e-4 -5.34 5.75e-4 -7.56-1.11-0.0997-4.13-0.172-8.25-0.22-12.4-0.02-1.4-0.0472-2.8-0.082-4.2-0.354-14.6-0.354-14.6 4.3-21.4 4.72-3.76 8.32-5.13 14.3-5.13z" fill="#6B203D"/>
<path transform="translate(973,437)" d="m0 0c0.196 1.58 0.382 3.17 0.562 4.75 0.157 1.32 0.157 1.32 0.316 2.67 0.209 4.45 0.209 4.45-0.879 6.58-2.77 1.09-2.77 1.09-6.25 1.94-5.18 1.46-8.58 2.47-11.8 7.06-1.86 4.61-2.3 8.64-2.41 13.6-0.0194 0.702-0.0387 1.4-0.0587 2.13-0.0593 2.22-0.106 4.44-0.152 6.66-0.0382 1.51-0.0773 3.03-0.117 4.54-0.0955 3.69-0.18 7.39-0.258 11.1-2.31 0.0269-4.62 0.0463-6.94 0.0625-1.29 0.0116-2.58 0.0232-3.9 0.0352-3.16-0.0977-3.16-0.0977-4.16-1.1-0.104-1.8-0.139-3.6-0.145-5.41-0.00638-1.15-0.0128-2.31-0.0193-3.5-0.00111-1.26-0.00223-2.51-0.00337-3.81-0.00333-1.28-0.00666-2.56-0.0101-3.88-6e-3 -2.72-0.00784-5.43-0.00725-8.15 1.02e-4 -3.49-0.0135-6.97-0.0308-10.5-0.0138-3.32-0.0132-6.63-0.0144-9.95-0.00719-1.26-0.0144-2.51-0.0218-3.8 0.00308-1.16 0.00615-2.32 0.00932-3.51-0.00143-1.02-0.00285-2.05-0.00432-3.1 0.247-2.44 0.247-2.44 2.25-4.44 2.6-0.195 2.6-0.195 5.62-0.125 1.5 0.0271 1.5 0.0271 3.04 0.0547 0.771 0.0232 1.54 0.0464 2.34 0.0703 2 6.75 2 6.75 2 9 4.1-2.38 8-5.01 11.9-7.7 3.4-2.13 5.33-2.47 9.09-1.3z" fill="#6B203D"/>
<path transform="translate(793 437)" d="m0 0c1.75 0.0232 1.75 0.0232 3.54 0.0469 2.84 0.203 2.84 0.203 3.84 1.2 0.0939 1.87 0.117 3.75 0.114 5.62-7.55e-5 1.2-1.51e-4 2.4-2.29e-4 3.64-0.00516 1.31-0.0103 2.61-0.0156 3.96-0.00186 1.34-0.00329 2.69-0.00429 4.03-0.00382 3.54-0.0137 7.09-0.0247 10.6-0.0102 3.61-0.0148 7.23-0.0198 10.8-0.0107 7.09-0.0278 14.2-0.0488 21.3-2.48 0.0269-4.96 0.0468-7.44 0.0625-0.707 0.00838-1.41 0.0168-2.14 0.0254-1.81 0.00865-3.61-0.0357-5.42-0.0879-1.86-1.86-1.24-4.98-1.32-7.47-0.021-0.667-0.0419-1.33-0.0635-2.02-0.0667-2.19-0.125-4.38-0.183-6.57-0.0202-0.741-0.0404-1.48-0.0612-2.25-0.122-4.52-0.231-9.04-0.33-13.6-0.0439-2-0.0909-4-0.138-6-0.0718-3.34-0.121-6.67-0.159-10-0.0214-0.99-0.0427-1.98-0.0647-3-0.00443-0.905-0.00886-1.81-0.0134-2.74-0.00935-0.78-0.0187-1.56-0.0283-2.36 0.983-5.57 5.14-5.38 9.98-5.27z" fill="#6B203D"/>
<path transform="translate(1037 437)" d="m0 0c1.17 0.0142 2.35 0.0284 3.56 0.043 1.77 0.00967 1.77 0.00967 3.57 0.0195 2.87 0.168 2.87 0.168 3.87 1.17 0.0939 1.87 0.117 3.75 0.114 5.62-7.55e-5 1.2-1.51e-4 2.4-2.29e-4 3.64-0.00516 1.31-0.0103 2.61-0.0156 3.96-0.00186 1.34-0.00329 2.69-0.00429 4.03-0.00382 3.54-0.0137 7.09-0.0247 10.6-0.0102 3.61-0.0148 7.23-0.0198 10.8-0.0107 7.09-0.0278 14.2-0.0488 21.3-2.29 0.0269-4.58 0.0464-6.88 0.0625-1.28 0.0116-2.55 0.0232-3.87 0.0352-3.26-0.0977-3.26-0.0977-5.26-1.1-0.0463-7.53-0.0819-15.1-0.104-22.6-0.0104-3.5-0.0246-6.99-0.0473-10.5-0.0258-4.02-0.0356-8.03-0.0444-12-0.0103-1.26-0.0206-2.52-0.0313-3.81-1.51e-4 -1.16-3.02e-4 -2.32-4.58e-4 -3.52-0.00444-1.03-0.00888-2.05-0.0135-3.11 0.375-3.81 1.52-4.39 5.24-4.67z" fill="#6B203D"/>
<path transform="translate(775 330)" d="m0 0c1.17 0.0142 2.35 0.0284 3.56 0.043 1.77 0.00967 1.77 0.00967 3.57 0.0195 2.87 0.168 2.87 0.168 3.87 1.17 0.0939 1.87 0.117 3.75 0.114 5.62-7.55e-5 1.2-1.51e-4 2.4-2.29e-4 3.64-0.00516 1.31-0.0103 2.61-0.0156 3.96-0.00186 1.34-0.00329 2.69-0.00429 4.03-0.00382 3.54-0.0137 7.09-0.0247 10.6-0.0102 3.61-0.0148 7.23-0.0198 10.8-0.0107 7.09-0.0278 14.2-0.0488 21.3-2.29 0.0269-4.58 0.0464-6.88 0.0625-1.28 0.0116-2.55 0.0232-3.87 0.0352-3.26-0.0977-3.26-0.0977-5.26-1.1-0.0463-7.53-0.0819-15.1-0.104-22.6-0.0104-3.5-0.0246-6.99-0.0473-10.5-0.0258-4.02-0.0356-8.03-0.0444-12-0.0103-1.26-0.0206-2.52-0.0313-3.81-1.51e-4 -1.16-3.02e-4 -2.32-4.58e-4 -3.52-0.00444-1.03-0.00888-2.05-0.0135-3.11 0.375-3.81 1.52-4.39 5.24-4.67z" fill="#6B203D"/>
<path transform="translate(1186 330)" d="m0 0c1.17 0.0142 2.35 0.0284 3.56 0.043 1.77 0.00967 1.77 0.00967 3.57 0.0195 2.87 0.168 2.87 0.168 3.87 1.17 0.522 9.47 1.03 19.2-3 28-1 1-1 1-3.07 1.1-0.824-0.0116-1.65-0.0232-2.5-0.0352-0.826-0.00902-1.65-0.018-2.5-0.0273-0.957-0.0174-0.957-0.0174-1.93-0.0352-1-3-1-3 0-6 0.333-3.5 0.333-3.5 0-7-0.494-0.442-0.987-0.884-1.5-1.34-2.23-2.46-1.87-4.46-1.82-7.72 0.00387-1.06 0.00773-2.13 0.0117-3.22 0.438-3.95 1.37-4.64 5.3-4.95z" fill="#6B203D"/>
<path transform="translate(1048 362)" d="m0 0c1.43 0.101 1.43 0.101 2.88 0.203 2.89 0.617 3.86 1.16 5.56 3.55 0.885 4.91 0.885 4.91 0 8-2.85 3.75-6.17 5.64-10.8 6.54-4.5 0.228-8.22 0.021-12-2.61-2.25-2.94-2.25-2.94-2.5-6.44 1.64-4.6 3.21-5.81 7.25-8.5 3.27-1.15 6.13-1.03 9.56-0.75z" fill="#FCFDFF"/>
<path transform="translate(741,364)" d="m0 0c1.62 3.23 1.73 6.52 1 10-2.17 2.73-4.89 4.44-8 6-5.16 0.59-10.4 1.09-14.8-2.06-2.25-2.94-2.25-2.94-2.44-6.5 1.68-4.86 4.14-6.36 8.56-8.69 5.52-1.58 10.4-0.996 15.6 1.25z" fill="#FCFDFF"/>
<path transform="translate(906 449)" d="m0 0c3.04 2.55 5.59 5.34 7.31 8.94v5h-29c-1-4-1-4 0.438-6.94 5.75-6.87 12.4-10.5 21.2-7z" fill="#FCFDFF"/>
<path transform="translate(793 413)" d="m0 0c1.75 0.0232 1.75 0.0232 3.54 0.0469 2.84 0.203 2.84 0.203 3.84 1.2 0.0727 2.35 0.0837 4.71 0.0625 7.06-0.00902 1.29-0.018 2.58-0.0273 3.91-0.0116 0.999-0.0232 2-0.0352 3.03-2.46 0.0269-4.92 0.0468-7.38 0.0625-0.699 0.00838-1.4 0.0168-2.12 0.0254-5.28 0.0254-5.28 0.0254-7.51-1.09-0.0811-1.77-0.139-3.54-0.188-5.31-0.0348-0.986-0.0696-1.97-0.105-2.99 0.293-2.7 0.293-2.7 1.39-4.54 2.85-1.74 5.23-1.48 8.53-1.41z" fill="#6B203D"/>
<path transform="translate(1037 413)" d="m0 0c1.17 0.0142 2.35 0.0284 3.56 0.043 1.77 0.00967 1.77 0.00967 3.57 0.0195 2.87 0.168 2.87 0.168 3.87 1.17 0.0727 2.35 0.0837 4.71 0.0625 7.06-0.00902 1.29-0.018 2.58-0.0273 3.91-0.0116 0.999-0.0232 2-0.0352 3.03-2.48 0.0269-4.96 0.0468-7.44 0.0625-0.707 0.00838-1.41 0.0168-2.14 0.0254-1.81 0.00865-3.61-0.0357-5.42-0.0879-1.81-1.81-1.17-4.5-1.19-6.94-0.0142-1.08-0.0284-2.16-0.043-3.28 0.332-4.01 1.25-4.71 5.23-5.02z" fill="#6B203D"/>
<path transform="translate(775 306)" d="m0 0c1.17 0.0142 2.35 0.0284 3.56 0.043 1.77 0.00967 1.77 0.00967 3.57 0.0195 2.87 0.168 2.87 0.168 3.87 1.17 0.0727 2.35 0.0837 4.71 0.0625 7.06-0.00902 1.29-0.018 2.58-0.0273 3.91-0.0116 0.999-0.0232 2-0.0352 3.03-2.48 0.0269-4.96 0.0468-7.44 0.0625-0.707 0.00838-1.41 0.0168-2.14 0.0254-1.81 0.00865-3.61-0.0357-5.42-0.0879-1.81-1.81-1.17-4.5-1.19-6.94-0.0142-1.08-0.0284-2.16-0.043-3.28 0.332-4.01 1.25-4.71 5.23-5.02z" fill="#6B203D"/>
</svg>
